PathFileType	4	(X/Y/Z)	path1_09_0-604.trc
DataRate	CameraRate	NumFrames	NumMarkers	Units	OrigDataRate	OrigDataStartFrame	OrigNumFrames
30	30	7	22	m	30	151	604
Frame#	Time	Hip			RHip			RKnee			RAnkle			RBigToe			RSmallToe			RHeel			LHip			LKnee			LAnkle			LBigToe			LSmallToe			LHeel			Neck			Head			Nose			RShoulder			RElbow			RWrist			LShoulder			LElbow			LWrist		
		X1	Y1	Z1	X2	Y2	Z2	X3	Y3	Z3	X4	Y4	Z4	X5	Y5	Z5	X6	Y6	Z6	X7	Y7	Z7	X8	Y8	Z8	X9	Y9	Z9	X10	Y10	Z10	X11	Y11	Z11	X12	Y12	Z12	X13	Y13	Z13	X14	Y14	Z14	X15	Y15	Z15	X16	Y16	Z16	X17	Y17	Z17	X18	Y18	Z18	X19	Y19	Z19	X20	Y20	Z20	X21	Y21	Z21	X22	Y22	Z22
152	5.066666666666666	2.3975676946621407	0.8401718710581746	0.7309038990954927	2.405603736779155	0.8029504640940793	0.6541771130965964	2.3955851780820323	0.4684668422271842	0.6443897518196228	2.4641994361542134	0.10149948255697479	0.6681154022175754	2.2722191950231108	0.0287524310193263	0.6378357578693418	2.313942418064206	0.024131572391280394	0.5804089620390008	2.5061773764596493	0.034889080350060345	0.6743586903676897	2.401716507459189	0.7999979724283903	0.8134507313666005	2.423224743140101	0.4394577626196293	0.8288540761734018	2.4673439573501987	0.10226800574159686	0.8192841530637371	2.302951966811326	0.010143857487160844	0.8212812230261173	2.3386889063467033	0.02206791991227684	0.8723257442199008	2.5047139161478436	0.03464032648572274	0.8052830010180085	2.360281549190405	1.4706654361420535	0.7412297809666254	2.330553030379911	1.712682694143381	0.7014043424447851	2.2218163491605636	1.6041406023338791	0.7448292441368731	2.4145895588127604	1.3705149009518491	0.5741642878468366	2.466569525388494	1.087710818666606	0.5617334386877937	2.45989239736015	0.8575200569605604	0.551308856556742	2.3950630321532063	1.3569357275791618	0.8939770234727757	2.431465389518906	1.0746604489081117	0.9407434732894611	2.450968050212447	0.8436994397512226	0.9334819718615078
153	5.1	2.3975270537245366	0.8401295545878568	0.7309062815912059	2.405507639204059	0.8025536971696254	0.6539335609318119	2.395348835156911	0.468524929965297	0.644341655856681	2.4627876540258753	0.10231585833024394	0.6664966667476158	2.27225887500419	0.028367465024972668	0.6378028385834362	2.3138930449800474	0.024190255303938795	0.5802963340213603	2.507376922421919	0.03418508429331917	0.6752869072811067	2.4018494145817257	0.7992764228341505	0.8129838429167849	2.423340559506003	0.4389714314801468	0.8289840916880814	2.4670689315560663	0.10225877200089054	0.8191037857438215	2.30281475116246	0.009640879611327808	0.8214435394670262	2.338906263233519	0.022074823134909223	0.872294634999497	2.504738338194689	0.034490840574228875	0.8053933714157778	2.3601265036208963	1.4707480066270855	0.7414760365634641	2.3307154093265936	1.7116040260706453	0.7037748043954011	2.2214120282180243	1.604335967294674	0.7449767235399288	2.414436086557897	1.3704552542049788	0.5739349446563504	2.4666574040114706	1.0876514900142358	0.5614499937616817	2.459784013724259	0.8575993136287773	0.5481757234345705	2.3950910537119343	1.3568754242647847	0.8939477677216726	2.4315294986251317	1.074751434929756	0.9408211485998867	2.451333433428507	0.8435618651459735	0.933449575158729
154	5.133333333333334	2.397527381766957	0.8400247812607996	0.7309208028376388	2.4055732964827348	0.8021185694780019	0.653751224436169	2.3950964547954867	0.4686537063302375	0.6443236705799447	2.4609341475260518	0.10364587039819123	0.664311353356158	2.272374459406022	0.028012715237614956	0.6378561039499163	2.3137959924688083	0.02434173977270646	0.5801908318556949	2.5083275717405495	0.033661276175224866	0.6760391739506284	2.4018144271399695	0.7985787625652775	0.8126841603222767	2.42329976938841	0.43775511140467627	0.8294058624119632	2.4657528243011386	0.10290516751278757	0.8179891255674389	2.3026006716352536	0.009481367512072828	0.8214160103977545	2.338970739871519	0.02204900724719147	0.8721266821716918	2.5045613112225524	0.03450783526649397	0.8055854459700613	2.359926350832088	1.4708357771817746	0.7417293918144648	2.3307591758925854	1.7102333777730285	0.7069688845370504	2.220965501001096	1.604529367163913	0.744856949901343	2.414358681211628	1.3704292040090864	0.5737246443698301	2.4666568513352525	1.0877318222237973	0.561016158720246	2.459666511199096	0.8577558665817852	0.5438233847051929	2.39498880209474	1.3567926410049203	0.8940332850789101	2.4315826375293974	1.0747967450446492	0.9408518984441463	2.451623013896581	0.8435502713525944	0.9334320088211834
155	5.166666666666667	2.397567559830508	0.8399089335998259	0.7309284238109397	2.4057450006583614	0.8017427667869922	0.6536370444211606	2.394841194373897	0.46882056064359845	0.6443316766273033	2.4600298403745358	0.10431581245376965	0.6634131559435251	2.27265385058426	0.027741013966573393	0.63799819946098	2.3137684977366852	0.02454393972611662	0.5801241968847322	2.5088770151448596	0.0334199589838665	0.6764022730309146	2.4016312543482017	0.7980459382116774	0.8125819944374935	2.4231071865050784	0.43634582837141517	0.8300321331290599	2.463848324405189	0.10390483661550565	0.8164304581019919	2.30216778953717	0.009966679960221849	0.8210184344775125	2.338825424324004	0.021975817644051505	0.8718571487399854	2.5042376523265544	0.03466318016241329	0.8058066036010294	2.3597335700846642	1.4709097335961758	0.7419377448254882	2.3306965201987073	1.7089364099792903	0.7099851814120153	2.220557216891465	1.6047076098817858	0.744493073497752	2.4143178098896065	1.3704744177229369	0.5735387576392793	2.4665707415009037	1.0878781134025277	0.5606201679062951	2.4595094160883253	0.8579528048920275	0.5393433442134876	2.3948414619314287	1.356740732577695	0.8941841784031694	2.431596525546699	1.0748145611149653	0.9408316409220864	2.451754350325521	0.8436629434498774	0.9334555225116508
156	5.2	2.3976417834501405	0.8398233659826095	0.7309312623234913	2.405989013675755	0.8014633379856472	0.653593719196288	2.394558874308857	0.46901395501964466	0.6443526523663887	2.4609176084814153	0.10359572759660365	0.6649042370021941	2.273114166504376	0.027537009768926805	0.6382257872963328	2.313882402450803	0.024734513430945983	0.5801400750536115	2.5091735184022808	0.033373296374562274	0.6764277604675903	2.401328927913998	0.7977359204608664	0.8126730164816656	2.4228533484782226	0.43512453240307863	0.8308181673696606	2.4624243305471105	0.10451182594513697	0.8155528778987255	2.301526891754187	0.011128337358503005	0.8201864142367279	2.3384715169551122	0.02187579900467108	0.871544003733374	2.5039218018245677	0.0348308854993314	0.8060434232072669	2.359600495980865	1.4709583319044948	0.7421124471039984	2.3306904884119852	1.7082498789521678	0.7111499911314683	2.2202769316997952	1.6048777610300333	0.7439580962720044	2.414294414983466	1.3706343807236065	0.5734225065066836	2.4663966705860134	1.0880765140069573	0.5603585618908178	2.4593116225004428	0.8582462000539216	0.5358787667240564	2.3947134056913044	1.3567578417600754	0.8943652486805338	2.431587973352966	1.074796834931378	0.9407673118704217	2.4517178521761616	0.8438477980888028	0.9335541962642058
157	5.233333333333333	2.3977104050438416	0.839814273330769	0.7309509508529206	2.4062394936752405	0.8012979964643392	0.6536337419102174	2.3942238430151144	0.4692324277020594	0.6443816128530662	2.463261780615742	0.10170449471608513	0.6683239639809468	2.2736344954020398	0.027382654781087368	0.638521790996025	2.314050420602068	0.024866322522847085	0.5802986438214821	2.5093528722110263	0.033385145390837444	0.6762647102304907	2.4009698071426344	0.797662694311932	0.812928198210794	2.4226276719746247	0.4343049436846124	0.8316469662809943	2.4621555399462642	0.10428025210814588	0.8159188756818091	2.30100022799593	0.01259849729975657	0.8191407029276746	2.3379953061179672	0.021796476629256354	0.8712493579389055	2.503791905037237	0.034863433412337635	0.8063012683745734	2.3595621279549834	1.470982893879423	0.7422849817221638	2.3308794644897515	1.708489035890854	0.7095805985576372	2.220184504780457	1.605021561082377	0.7433156637843036	2.4143098659114512	1.3708981589970255	0.5734438286339617	2.4661629345894394	1.0883371054666444	0.5602109695356915	2.4591067618041915	0.8586679886525668	0.5342062350072316	2.3946199069218643	1.3568536376674156	0.8945560032514394	2.4315998561412826	1.0747191418235709	0.9406785083935976	2.45155377773318	0.8440293397597675	0.9337368991663642
158	5.266666666666667	2.397718929806062	0.8399222358119688	0.7310013420744466	2.4064065242092783	0.801253082163203	0.6537693281632895	2.393856325188217	0.469440177903287	0.6444267012643701	2.4659879833809057	0.09949966009456115	0.6722111996210111	2.274000245783215	0.027292245550352978	0.6388439034070875	2.3140627199031556	0.02492464708862841	0.5806329189683597	2.5094803207063574	0.033379946816989296	0.6760993429854973	2.4006046207566007	0.7978144394148885	0.8132913218854899	2.4224404867257716	0.43397861213322253	0.8322933538821443	2.4627636929306314	0.10352658597661396	0.8169762461917923	2.300933161664939	0.01382883072423467	0.8182414589845952	2.3375509835523465	0.021783916588414734	0.8710228288216184	2.50392622387317	0.0347186690320912	0.8065678884917438	2.359622004588548	1.470996666766419	0.7424459296386522	2.331195624385522	1.7094250896014966	0.7061694503655204	2.220261057081332	1.6050858940729344	0.7426170376180943	2.414404211169637	1.3711908015854752	0.5736196883322113	2.4659558016441454	1.0886416868421702	0.5600794477024452	2.458970434195815	0.8591612123773891	0.5344705465976932	2.3945299966774964	1.357007151851739	0.8947368184498145	2.431669658793025	1.0745704513506285	0.940589374463756	2.4512882919877663	0.8441398449904599	0.9339853760012302
